<svg width="32" height="32" viewBox="0 0 32 32" fill="none" xmlns="http://www.w3.org/2000/svg">
<path d="M23.07 2C22.5 1.99 21.94 2.061 21.41 2.18C21.2538 2.21513 21.1087 2.28795 20.9871 2.39208C20.8655 2.49622 20.7713 2.62852 20.7126 2.77744C20.654 2.92635 20.6326 3.08737 20.6504 3.24644C20.6683 3.4055 20.7248 3.55778 20.815 3.69C20.817 3.693 20.82 3.696 20.82 3.701C21.05 4.051 21.47 4.221 21.88 4.131C22.24 4.041 22.62 4.001 23 4.001C25.84 4.001 28.14 6.381 27.99 9.251C27.9277 10.4494 27.4361 11.5853 26.605 12.451L26.645 12.527C26.038 11.7402 25.2585 11.1032 24.3665 10.6653C23.4744 10.2273 22.4937 10 21.5 10.001C20.52 10.001 19.54 10.221 18.66 10.651L13.89 12.971C13.48 13.171 13.01 12.871 13.01 12.421V11.091C13.01 9.841 12.54 8.701 11.77 7.831L7.72 3.321C7.47 3.041 7 3.211 7 3.591V6.301C5.13 6.731 3.66 8.621 3.28 10.571C3.23 10.821 3.01 11.001 2.76 11.001C2.55844 11.001 2.36513 11.0811 2.2226 11.2236C2.08007 11.3661 2 11.5594 2 11.761V11.981C2 14.201 3.8 16.001 6.02 16.001V17.591C6.01975 18.6863 6.42713 19.7426 7.16283 20.5541C7.89852 21.3655 8.90988 21.8742 10 21.981V28.631C10 28.831 10.17 29.001 10.38 29.001H12.63C12.84 29.001 13.01 28.831 13.01 28.621V22.742L14.41 28.621C14.47 28.841 14.67 29.001 14.9 29.001H17.03C17.27 29.001 17.45 28.771 17.39 28.551L15.833 22.001H19.847L18.29 28.551C18.23 28.771 18.41 29.001 18.65 29.001H20.78C21.01 29.001 21.21 28.841 21.27 28.621L22.44 23.711L23.39 24.661C23.6 24.871 23.66 25.181 23.54 25.451L22.24 28.481C22.12 28.721 22.3 29.001 22.57 29.001H24.75C24.9 29.001 25.04 28.911 25.09 28.771L27.61 22.881C27.87 22.301 28 21.671 28 21.041V16.501C28 15.717 27.861 14.966 27.607 14.27C28.3716 13.6021 28.9817 12.7759 29.395 11.8486C29.8082 10.9213 30.0146 9.91511 30 8.9C29.95 5.12 26.85 2.04 23.07 2ZM5.813 10.747C5.813 10.388 6.103 10.11 6.45 10.11C6.809 10.11 7.087 10.4 7.087 10.747V11.697C7.08569 11.8655 7.01816 12.0268 6.89898 12.146C6.7798 12.2652 6.61854 12.3327 6.45 12.334C6.36627 12.3343 6.28332 12.318 6.20592 12.286C6.12851 12.2541 6.05819 12.2072 5.99898 12.148C5.93978 12.0888 5.89287 12.0185 5.86095 11.9411C5.82903 11.8637 5.81274 11.7807 5.813 11.697V10.747Z" fill="black"/>
</svg>
